<svg xmlns="http://www.w3.org/2000/svg" xmlns:xlink="http://www.w3.org/1999/xlink" width="500" zoomAndPan="magnify" viewBox="0 0 375 374.999991" height="500" preserveAspectRatio="xMidYMid meet" version="1.0"><defs><clipPath id="8647221adb"><path d="M 16 17 L 359 17 L 359 359.765625 L 16 359.765625 Z M 16 17 " clip-rule="nonzero"/></clipPath><clipPath id="40ed7cd8b0"><path d="M 16 17 L 188 17 L 188 359.765625 L 16 359.765625 Z M 16 17 " clip-rule="nonzero"/></clipPath></defs><g clip-path="url(#8647221adb)"><path fill="#0396a6" d="M 24.648438 359.765625 L 95.980469 359.765625 C 97.996094 359.765625 99.949219 359.0625 101.496094 357.773438 L 181.980469 290.757812 C 185.179688 288.09375 189.820312 288.09375 193.015625 290.757812 L 273.5 357.773438 C 275.050781 359.0625 277.003906 359.765625 279.019531 359.765625 L 350.351562 359.765625 C 356.757812 359.765625 360.925781 353.03125 358.0625 347.304688 L 195.210938 21.863281 C 192.03125 15.515625 182.96875 15.515625 179.789062 21.863281 L 16.9375 347.304688 C 14.074219 353.03125 18.238281 359.765625 24.648438 359.765625 Z M 24.648438 359.765625 " fill-opacity="1" fill-rule="nonzero"/></g><g clip-path="url(#40ed7cd8b0)"><path fill="#5bccd9" d="M 187.5 17.105469 L 187.5 288.761719 C 185.539062 288.761719 183.582031 289.425781 181.980469 290.757812 L 101.496094 357.773438 C 99.949219 359.0625 97.996094 359.765625 95.980469 359.765625 L 24.648438 359.765625 C 18.238281 359.765625 14.074219 353.03125 16.9375 347.304688 L 179.789062 21.863281 C 181.378906 18.691406 184.4375 17.105469 187.5 17.105469 Z M 187.5 17.105469 " fill-opacity="1" fill-rule="nonzero"/></g></svg>